<?xml version="1.0" ?><!DOCTYPE svg  PUBLIC '-//W3C//DTD SVG 1.1//EN'  'http://www.w3.org/Graphics/SVG/1.1/DTD/svg11.dtd'><svg enable-background="new 0 0 120 120" id="Layer_1" version="1.1" viewBox="0 0 120 120" xml:space="preserve" xmlns="http://www.w3.org/2000/svg" xmlns:xlink="http://www.w3.org/1999/xlink"><g><path d="M1.2,1.2v117.6h117.6V1.2H1.2z M104.1,104.1H15.9V15.9h88.2V104.1z" fill="#754F3C"/><path d="M11,11v98h98V11H11z M104.1,104.1H15.9V15.9h88.2V104.1z" fill="#4C362B"/><polygon fill="#FFFFFF" opacity="0.1" points="15.9,15.9 104.1,15.9 109,11 11,11  "/><polygon fill="#FFFFFF" opacity="0.1" points="104.1,104.1 15.9,104.1 11,109 109,109  "/><rect fill="#9AAEC9" height="88.2" width="88.2" x="15.9" y="15.9"/><g><polygon fill="#FFFFFF" opacity="0.15" points="37.2,15.9 21.2,104.1 16.6,104.1 32.6,15.9   "/><polygon fill="#FFFFFF" opacity="0.15" points="65.1,15.9 49.1,104.1 46.8,104.1 62.8,15.9   "/><polygon fill="#FFFFFF" opacity="0.15" points="59.7,15.9 43.7,104.1 27.2,104.1 43.2,15.9   "/><polygon fill="#FFFFFF" opacity="0.15" points="75,15.9 59.1,104.1 54.4,104.1 70.4,15.9   "/><polygon fill="#FFFFFF" opacity="0.15" points="102.9,15.9 87,104.1 84.6,104.1 100.6,15.9   "/><polygon fill="#FFFFFF" opacity="0.15" points="97.5,15.9 81.5,104.1 65.1,104.1 81,15.9   "/></g><rect fill="#4C362B" height="88.2" width="3.9" x="58" y="15.9"/><rect fill="#4C362B" height="3.9" width="88.2" x="15.9" y="58"/></g></svg>