<svg xmlns="http://www.w3.org/2000/svg" xmlns:xlink="http://www.w3.org/1999/xlink" width="1200" height="630" viewBox="0 0 1200 630">
  <!-- Template for the social previews, drawn as the site's Vim help buffer in
       light mode. scripts/fill-og-template.py fills the placeholders once per
       language from og.json and the site content; text in Iosevka or Pretendard
       is then outlined by scripts/outline-svg-text.py, other text uses system fonts. -->
  <defs>
    <pattern id="rule" x="96" y="410" width="13" height="10" patternUnits="userSpaceOnUse">
      <rect x="1.5" y="0" width="10" height="3" fill="#177A42"/>
      <rect x="1.5" y="7" width="10" height="3" fill="#177A42"/>
    </pattern>
  </defs>
  <rect width="1200" height="630" fill="#FFFFFF"/>

  <!-- Tab line -->
  <rect width="1200" height="52" fill="#13161C"/>
  <image x="22" y="12" width="28" height="28" xlink:href="favicon.svg"/>
  <text x="62" y="34" font-family="Iosevka" font-weight="700" font-size="22" fill="#FFFFFF">Vimdow</text>
$tabs
  <text x="1178" y="34" font-family="Iosevka" font-size="22" text-anchor="end" fill="#FFFFFF">GitHub</text>
  <rect x="1112" y="38" width="66" height="1.5" fill="#FFFFFF"/>

  <!-- Buffer -->
  <text x="96" y="124" font-family="Iosevka" font-size="26" fill="#177A42">*$helpFile*</text>
  <text x="1104" y="124" font-family="$font" font-size="26" text-anchor="end" fill="#13161C">$helpLine</text>
  <g font-family="$font" font-weight="700" font-size="$headlineSize" fill="#13161C">
$headline
  </g>
  <rect x="96" y="410" width="1014" height="10" fill="url(#rule)"/>
  <text x="96" y="480" font-family="$font" font-size="32" fill="#13161C">$subtitle</text>
  <g fill="none" stroke="#3D4552" stroke-width="2">
    <rect x="97" y="506" width="40" height="44" rx="4"/>
    <rect x="145" y="506" width="40" height="44" rx="4"/>
    <rect x="193" y="506" width="40" height="44" rx="4"/>
    <rect x="241" y="506" width="40" height="44" rx="4"/>
  </g>
  <g font-family="Iosevka" font-weight="700" font-size="28" text-anchor="middle" fill="#3D4552">
    <text x="117" y="537">h</text>
    <text x="165" y="537">j</text>
    <text x="213" y="537">k</text>
    <text x="261" y="537">l</text>
  </g>

  <!-- Status line -->
  <rect y="578" width="1200" height="52" fill="#13161C"/>
  <g font-family="Iosevka" font-weight="700" font-size="22" fill="#FFFFFF">
    <text x="22" y="611">vimdow.told.me [Help][RO]</text>
    <text x="1040" y="611" text-anchor="end">1,1</text>
    <text x="1178" y="611" text-anchor="end">Top</text>
  </g>
</svg>
